<?xml version="1.0" encoding="UTF-8" standalone="no"?>
<svg
   xmlns:dc="http://purl.org/dc/elements/1.1/"
   xmlns:cc="http://creativecommons.org/ns#"
   xmlns:rdf="http://www.w3.org/1999/02/22-rdf-syntax-ns#"
   xmlns:svg="http://www.w3.org/2000/svg"
   xmlns="http://www.w3.org/2000/svg"
   version="1.1"
   id="svg5162"
   viewBox="0 0 299.99999 149.10398"
   height="42.080456mm"
   width="84.666664mm">
  <defs
     id="defs5164" />
  <metadata
     id="metadata5167">
    <rdf:RDF>
      <cc:Work
         rdf:about="">
        <dc:format>image/svg+xml</dc:format>
        <dc:type
           rdf:resource="http://purl.org/dc/dcmitype/StillImage" />
        <dc:title></dc:title>
      </cc:Work>
    </rdf:RDF>
  </metadata>
  <g
     transform="translate(230.71429,-457.81022)"
     id="layer1">
    <path
       d="m 69.276335,603.33335 -299.933225,0 -0.0574,0.18138 0,3.33896 0.1179,0.0605 299.812305,0 c 0.13754,-1.07772 0.0226,-2.40635 0.0605,-3.5808 m -13.36188,-34.58216 c 0.76786,0.74367 1.10342,1.91661 1.0747,3.45686 l 1.19259,0 0,-5.1286 -16.75827,0 c -0.13754,1.58861 -0.0212,3.4372 -0.0605,5.1286 0.328,-0.071 0.94168,0.14813 1.07319,-0.12092 0.23882,-1.28933 0.3552,-2.71017 1.25305,-3.33594 1.16841,-0.48217 2.79178,-0.51089 4.47411,-0.47915 -0.0408,5.78611 0.0802,11.72943 -0.0605,17.41276 -0.45799,0.75273 -1.98614,0.43683 -2.92178,0.71495 -0.21463,0.0982 -0.1708,0.90842 0,1.01574 2.94143,0.13755 6.14435,0.0166 9.18402,0.0619 l 0,-1.19561 c -1.12608,-0.0109 -2.31565,0.0468 -2.86434,-0.53811 -0.2101,-0.20405 -0.074,-0.7618 -0.23579,-1.01272 0.0771,-5.44602 -0.15871,-11.18074 0.1179,-16.40003 1.59012,-0.17534 3.33744,0.002 4.53154,0.4202 m -18.84568,-0.59705 0,-1.07469 -6.56152,0 0,1.07469 c 1.06109,-0.004 2.09195,0.0151 2.50762,0.656 0.45799,4.15065 0.19649,9.33971 0.17684,13.7715 -3.53696,-5.18755 -7.14346,-10.3086 -10.67287,-15.50219 l -5.30847,0 c -0.13755,0.23882 -0.0197,0.7346 -0.0574,1.07469 0.86157,-0.0121 1.64303,0.0619 2.20532,0.35823 0.12848,0.068 -0.01,0.40207 0.17684,0.41567 l 0,7.45484 c 0,3.22861 0.17383,6.82906 -0.29777,9.30191 -0.29323,0.60008 -1.28328,0.50334 -1.968,0.71496 -0.21615,0.0982 -0.1708,0.90842 0,1.01574 2.02847,0.13755 4.31238,0.0166 6.44212,0.0619 l 0,-1.19561 c -1.07319,0.0574 -1.91511,-0.11186 -2.3867,-0.65752 -0.33102,-0.78901 -0.14511,-1.968 -0.23882,-2.98072 -0.3673,-3.91787 -0.068,-8.5643 0,-12.34311 3.9874,5.67426 7.90527,11.41654 11.81105,17.17696 0.58496,-0.0695 1.45559,0.14209 1.84557,-0.12092 0.21161,-5.93424 -0.12546,-12.41415 0.17836,-18.24863 0.21615,0.0574 0.0846,-0.23731 0.12092,-0.35672 0.44136,-0.43683 1.06109,-0.69379 2.02695,-0.59705 M -0.97926544,585.922 c -0.50635996,0.33254 -1.27118996,0.40056 -2.14786996,0.35975 l 0,1.19561 15.1500004,0 c 0.14208,-1.84859 0.30382,-3.67602 0.35521,-5.60926 -0.328,0.0711 -0.94319,-0.14813 -1.07469,0.12092 -0.36126,1.16538 -0.48218,2.57715 -1.25155,3.33593 -1.4767604,1.15481 -5.3326504,1.0233 -7.3339104,0.41869 -0.24487,-0.19196 -0.21766,-0.656 -0.35974,-0.95377 l 0,-7.33542 c 2.00579,-0.0166 4.00856,-0.0302 5.72716,0.23731 0.62426,0.43834 0.6817,1.35281 0.83436,2.26577 0.1315,0.26905 0.74518,0.0498 1.07167,0.12092 l 0,-6.31968 -1.19259,0 c 0.52752,3.50674 -3.70626,2.25519 -6.4406,2.5046 0.0756,-2.58622 -0.15418,-5.47928 0.12092,-7.87202 2.08439,-0.22824 4.90489,-0.23278 6.5585,0.35974 0.8389,0.71495 1.0883004,2.01335 1.1941004,3.45686 l 1.19411,0 0,-5.1286 -14.4924904,0 c -0.14058,0.23882 -0.0227,0.7346 -0.0605,1.07469 0.86308,-0.0514 1.5478,0.0816 2.14786996,0.29777 0.0907,0.18289 0.0877,0.46404 0.2358,0.59705 l 0,16.39701 c -0.26300996,-0.0831 0,0.35521 -0.17534,0.35823 l -0.0605,0.1179 z M -30.803145,568.81016 c -0.065,5.45509 0.14662,11.19435 -0.11645,16.45747 -0.17231,0.14813 -0.13755,0.49881 -0.29626,0.65449 -0.46857,0.26906 -1.05353,0.42323 -1.85312,0.35975 l 0,1.19561 c 2.12822,-0.0816 4.54666,0.14964 6.44211,-0.12092 0.21313,-0.0998 0.17232,-0.90994 0,-1.01725 -0.87064,-0.0831 -1.81232,-0.0937 -2.26577,-0.59555 l -0.1179,-0.059 c -0.46857,-4.44085 -0.1965,-9.94582 -0.18138,-14.66934 2.35948,5.31301 4.61468,10.73485 6.98021,16.0403 0.19801,0.13755 0.65449,0.0197 0.95377,0.0605 2.40937,-5.38254 4.69329,-10.88902 7.15556,-16.22017 l 0,14.48947 c -0.18592,0.0137 -0.0514,0.34765 -0.17685,0.4187 -0.40962,0.48822 -1.28782,0.50182 -2.20834,0.47764 l 0,1.19561 7.8720196,0 0,-1.19561 c -0.96284,0.0438 -1.7926696,-0.0363 -2.2657696,-0.47764 0.0605,-0.25999 -0.0665,-0.32952 -0.1179,-0.47916 l 0,-16.27609 c 0.18592,-0.0121 0.0484,-0.34765 0.17836,-0.41869 0.41718,-0.47462 1.3029296,-0.4852 2.2053096,-0.47613 l 0,-1.07469 -5.4868296,0 c -1.03237,2.66481 -2.25368,5.1422 -3.33896,7.75109 -1.18957,2.50913 -2.17206,5.22383 -3.45836,7.63169 -2.22497,-5.12861 -4.5376,-10.17407 -6.68094,-15.38278 l -5.60473,0 0,1.07469 c 1.00516,0.006 2.09044,-0.0635 2.38216,0.656 m -27.31173,-0.71646 c 0.75274,0.12092 1.68233,0.0665 2.14486,0.47613 l 0.11789,0.0605 c 0.19197,4.42725 0.20708,9.64957 0,14.0738 0.0242,1.1548 0.002,2.26577 -0.29625,3.10014 -0.37788,0.43531 -1.12458,0.50636 -1.9665,0.47764 l 0,1.19561 6.56002,0 c -0.0544,-0.3673 0.11935,-0.95982 -0.12244,-1.13818 -0.86761,-0.0635 -1.73371,-0.1315 -2.26577,-0.53507 -0.0409,-0.27813 -0.14208,-0.49276 -0.23882,-0.71647 -0.21464,-4.69479 -0.13302,-10.00175 -0.0605,-14.78724 3.95717,5.68485 7.9219,11.35911 11.75059,17.17696 l 1.90905,0 0,-16.52095 c 0.23429,-0.68321 0.0333,-1.79418 0.4202,-2.32624 0.37486,-0.43532 1.12004,-0.50787 1.9665,-0.47613 l 0,-1.07469 -6.56153,0 0,1.07469 c 0.84645,-0.0348 1.53722,0.0921 2.14939,0.29777 0.17987,0.0953 0.21463,0.33707 0.35521,0.47613 0.37788,4.19448 0.25393,9.2082 0.17987,13.6536 -0.91901,-1.2455 -1.79872,-2.52878 -2.68447,-3.81509 -0.94168,-1.24398 -1.70953,-2.66331 -2.74341,-3.81509 -0.76786,-1.42083 -1.75942,-2.61493 -2.62401,-3.93601 -0.4066,-0.68925 -0.92656,-1.25758 -1.312,-1.96649 -0.46404,-0.6303 -0.93261,-1.25456 -1.31049,-1.96951 l -5.48835,0 c 0.0499,0.328 -0.11633,0.87063 0.12092,1.01423 m -7.03765,0.41869 c 0.51996,-0.31288 1.27724,-0.393 2.14485,-0.35823 l 0,-1.07469 -7.81156,0 c -0.13603,0.23882 -0.0212,0.7346 -0.0605,1.07469 0.86762,-0.0514 1.54932,0.0816 2.14637,0.29777 0.0937,0.18289 0.0907,0.46404 0.23882,0.59705 l 0,16.39701 c -0.20859,0.0258 -0.0801,0.39753 -0.23882,0.47613 -0.50485,0.33254 -1.26968,0.40056 -2.14637,0.35975 l 0,1.19561 7.87202,0 0,-1.19561 c -0.95982,0.0438 -1.79267,-0.0363 -2.26577,-0.47764 -0.21615,-4.76584 -0.1179,-10.26174 -0.1179,-15.14699 0,-0.69227 -0.12546,-1.41629 0.17836,-2.02695 l 0.0605,-0.1179 z m -22.18766,9.78107 c 0.76634,-2.61796 1.76092,-5.00012 2.50459,-7.63622 l 0.24033,0 c 0.74821,2.62703 1.65361,5.10442 2.50309,7.63622 l -5.24801,0 z m 5.48683,9.18402 7.39589,0 0,-1.19561 -0.89634,0 c -0.0484,-0.16778 -0.31893,-0.11488 -0.53357,-0.1179 0.0605,-0.1829 -0.13452,-0.10738 -0.23882,-0.12092 -1.1019,-1.88336 -1.66267,-4.30331 -2.38518,-6.55851 -0.2101,0.0272 -0.068,-0.29021 -0.24033,-0.29928 -0.56229,-2.08439 -1.37247,-3.91333 -1.90755,-6.0204 -0.20859,0.0272 -0.0695,-0.29323 -0.24033,-0.29928 -0.51996,-1.96498 -1.29084,-3.68056 -1.78813,-5.66519 l -0.11935,-0.12092 -2.26578,0 c -0.2101,0.86308 -0.42625,1.72011 -0.83436,2.38669 -0.41264,1.45409 -0.82227,2.91422 -1.43292,4.17181 -0.33103,1.21829 -0.66356,2.44111 -1.19108,3.45837 -0.25092,0.98249 -0.50636,1.96044 -0.95529,2.74492 -0.30532,1.20469 -0.69832,2.3217 -1.1941,3.33896 -0.0937,0.62124 -0.30382,1.12911 -0.59554,1.55082 -0.0302,0.66507 -0.43079,0.95831 -0.77541,1.31201 -0.22069,0.0786 -0.46404,0.1315 -0.656,0.23882 l -0.83588,0 -0.1179,0.1179 0,1.07771 6.3212,0 0,-1.07771 c -0.65449,-0.23882 -1.7307,-0.0574 -2.26729,-0.41718 0.42474,-2.32019 1.21073,-4.27762 1.85011,-6.38015 l 6.14283,0 c 0.63635,2.12521 1.4163,4.10984 2.02847,6.26225 -0.34917,0.58344 -1.61129,0.25696 -2.26729,0.53508 l 0,1.07771 z m -14.67085,-18.72638 c 0.78448,0.72553 1.02783,1.99068 1.07167,3.45686 l 1.19561,0 0,-5.1286 -16.879195,0 c -0.14057,1.58861 -0.0212,3.4372 -0.0605,5.1286 l 1.19411,0 c 0.15568,-1.41328 0.35521,-2.78423 1.25154,-3.45686 1.14271,-0.45043 2.91119,-0.591 4.4726,-0.4202 l 0,15.44475 c 0,0.66809 0.12394,1.41781 -0.17836,2.02847 -0.52148,0.61216 -1.95289,0.31288 -2.80388,0.59554 -0.26451,0.1315 -0.0484,0.7482 -0.1179,1.07771 l 9.303435,0 0,-1.19561 c -1.13515,0.0377 -2.164505,-0.0227 -2.862825,-0.41718 -0.0923,-0.18592 -0.0892,-0.46858 -0.23882,-0.59706 0.0407,-5.64705 -0.0786,-11.44828 0.0605,-16.99557 1.726165,-0.0363 3.357095,0.0227 4.592015,0.47915 m -28.031225,-0.23882 c 0.28568,-0.21161 1.00063,0.004 1.25155,-0.24033 1.86219,-0.0528 3.23163,0.38846 4.11588,1.312 0.0469,0.47764 0.48066,0.84041 0.59705,1.37247 0.328,1.51454 -0.0469,3.24826 -0.59705,4.35318 -0.92808,1.30294 -2.95806,1.43293 -5.48684,1.31201 0.0619,-2.68447 -0.13301,-5.61985 0.11935,-8.10933 m -5.48683,17.88738 c -0.26603,0.1315 -0.0484,0.7482 -0.11935,1.07771 l 7.87202,0 0,-1.19561 c -0.80564,0.0287 -1.5478,-0.006 -2.02695,-0.29928 l -0.1179,-0.0605 c -0.50636,-2.23705 -0.1179,-5.36893 -0.24034,-7.9884 1.77453,-0.006 3.70777,-0.16929 4.53155,0.77239 1.78662,2.51215 0.53206,7.90678 4.05693,8.65045 0.34312,-0.0453 0.56078,0.0318 0.77542,0.12092 l 2.56505,0 0,-1.07771 c -0.98551,-0.14813 -1.62791,-0.63636 -2.14787,-1.25155 -0.85855,-1.78662 -0.84192,-4.44539 -1.78814,-6.14434 -0.27056,-0.0861 -0.35823,-0.35823 -0.47764,-0.59554 -0.5381,-0.43381 -1.19713,-0.75123 -1.78964,-1.13213 2.06776,-0.71495 3.49766,-2.06777 3.8166,-4.53155 0.071,-1.9408 -0.56078,-3.17723 -1.42991,-4.17483 -2.6104,-2.41995 -8.87113,-1.18806 -13.59918,-1.49036 l 0,1.07469 c 0.984,0.0287 2.09044,-0.0635 2.3867,0.656 l 0,16.87465 c -0.28417,0.70891 -1.5478,0.43986 -2.26729,0.71496 m -20.39801,0 c -0.26452,0.1315 -0.0484,0.7482 -0.1179,1.07771 5.05,-0.0832 10.38719,0.15115 15.20744,-0.12092 0.13906,-0.35974 0.0212,-0.97644 0.0589,-1.43444 0.22673,-0.49275 0.056,-1.17294 0.12092,-1.84859 0.0756,-0.81018 0.2101,-1.6007 0.11935,-2.08439 -0.1315,-0.26905 -0.74669,-0.0498 -1.07469,-0.12092 -0.25847,1.47071 -0.52752,2.93084 -1.49037,3.6987 -0.62728,0.34765 -1.50396,0.44287 -2.32623,0.59705 -1.72616,-0.0468 -3.71684,0.17533 -4.77037,-0.53962 l -0.11935,-0.0574 c -0.40509,-2.17509 -0.28568,-5.65462 -0.11935,-8.05189 2.00882,-0.0409 4.76432,-0.30986 6.08388,0.53659 0.17534,0.61972 0.36126,1.22736 0.35672,2.02695 0.36428,-0.0514 0.95831,0.12092 1.13365,-0.12092 0.13906,-1.94684 0.0196,-4.15216 0.0589,-6.19876 l -1.1926,0 c -0.0711,0.78297 -0.11935,1.58861 -0.53659,2.02695 -1.34677,0.68321 -4.14611,0.54264 -5.96447,0.35672 -0.0363,-2.41995 -0.23429,-5.52462 0.11935,-7.75109 2.23403,-0.20859 5.36591,-0.33102 6.85929,0.59705 0.49881,0.8525 0.86611,1.83499 0.83285,3.21955 l 1.19411,0 0,-5.1286 -14.49401,0 c -0.13603,0.23882 -0.0197,0.7346 -0.0574,1.07469 0.8918,-0.0197 1.70802,0.0408 2.26728,0.35823 0.21615,4.82327 0.1179,10.38266 0.1179,15.32383 0,0.71344 0.12546,1.4556 -0.17836,2.0859 -0.41416,0.44439 -1.49338,0.21766 -2.08892,0.47765 m -6.56002,-17.64856 c 0.76937,0.74065 1.05656,1.96649 1.07469,3.45686 l 1.19109,0 0,-5.1286 -16.87617,0 c -0.13906,1.58861 -0.0212,3.4372 -0.0605,5.1286 l 1.19259,0 c 0.20103,-1.36944 0.34614,-2.79028 1.25154,-3.45686 1.16992,-0.48217 2.79179,-0.51089 4.47411,-0.47915 l 0,15.44324 c 0,0.6953 0.12546,1.45862 -0.17987,2.08893 -0.51996,0.61216 -1.94986,0.31288 -2.80236,0.59554 -0.21313,0.0982 -0.1708,0.90842 0,1.01574 2.94293,0.13755 6.14283,0.0166 9.18402,0.0619 l 0,-1.19561 c -1.06412,0.0109 -2.14334,0.0377 -2.74342,-0.41718 l -0.1179,-0.12093 c -0.23126,-0.0453 -0.007,-0.54717 -0.24033,-0.59554 0.0801,-5.5881 -0.1572,-11.46037 0.11935,-16.81721 1.58861,-0.17534 3.33896,0.002 4.53306,0.4202 m -18.84568,-0.59705 0,-1.07469 -6.56153,0 0,1.07469 c 1.06563,-0.0348 1.98917,0.0786 2.5046,0.59705 0.44892,4.1839 0.2101,9.37145 0.17987,13.83045 -3.54452,-5.17849 -7.15858,-10.29197 -10.67589,-15.50219 l -5.36591,0 0,1.07469 c 0.86459,-0.0121 1.64453,0.0619 2.20531,0.35823 0.12999,0.068 -0.007,0.40207 0.17987,0.41567 -0.14662,5.35382 0.32196,12.03778 -0.29928,16.75675 -0.29475,0.60008 -1.28328,0.50334 -1.96801,0.71496 -0.26451,0.1315 -0.0484,0.7482 -0.11789,1.07771 l 6.56001,0 0,-1.19561 c -0.83738,0.0605 -1.47071,-0.0816 -2.02846,-0.29929 l -0.35824,-0.35823 c -0.30532,-0.65751 -0.15719,-1.65058 -0.23731,-2.50459 -0.37334,-3.97833 -0.0181,-8.8137 -0.0605,-12.81924 1.11853,1.28782 1.92115,2.88853 3.04119,4.17332 0.84796,1.57803 2.04056,2.81446 2.86434,4.41214 0.66356,0.54868 0.96284,1.46467 1.54931,2.0859 0.45799,0.75879 1.01121,1.41781 1.43141,2.20834 1.07167,1.35281 1.95894,2.89003 2.98224,4.29726 l 1.78964,0 c 0.13453,-6.22597 -0.32346,-13.09584 0.35824,-18.72627 0.43834,-0.43683 1.05806,-0.69379 2.02695,-0.59705 m -40.19747,0 c 0.86459,-0.0121 1.70802,10e-4 2.14636,0.41567 0.20406,0.0921 0.0559,0.54112 0.23882,0.65751 l 0,16.04029 c -0.20556,0.0921 -0.0559,0.53962 -0.23882,0.65449 -0.50333,0.33254 -1.26968,0.40056 -2.14636,0.35975 l 0,1.19561 15.14698,0 c 0.11645,-1.87429 0.28417,-3.69719 0.35974,-5.60926 -0.328,0.0711 -0.94167,-0.14813 -1.07318,0.12092 -0.35218,1.35432 -0.60612,2.80992 -1.55082,3.57778 -1.65965,0.80261 -5.16337,0.80261 -7.03766,0.17684 l -0.11935,-0.059 c -0.50787,-2.31565 -0.11632,-5.53217 -0.23882,-8.23024 2.00428,-0.0166 4.00856,-0.0302 5.72414,0.23731 0.55322,0.48519 0.81169,1.25758 0.71647,2.38669 l 1.1941,0 0,-6.31968 -1.1941,0 c 0.51391,3.49615 -3.70173,2.26275 -6.44061,2.50459 0.0786,-2.56505 -0.1572,-5.4445 0.11935,-7.81155 1.07923,-0.39149 2.86283,-0.0802 4.23378,-0.17987 0.77239,0.16324 1.6793,0.19045 2.32624,0.47915 0.8011,0.74669 1.09132,2.01033 1.1941,3.45686 l 1.19108,0 0,-5.1286 -14.49098,0 c -0.13906,0.23882 -0.0212,0.7346 -0.0605,1.07469 M 0.68910456,544.42153 c -1.93625996,-0.0514 -3.73345996,-0.24335 -5.48833996,-0.47915 -0.43834,-0.0377 -1.05202,0.0983 -1.312,-0.1179 l -1.13214,0 -0.17836,-0.11935 c -1.12004,0.007 -1.65511,-0.57287 -1.91056,-1.43293 l 0,-0.77239 0.12092,-0.18138 0,-0.29928 c 0.21766,-0.39904 0.33707,-0.8918 0.47462,-1.36944 0.19801,0.0711 0.0498,-0.19196 0.24184,-0.12092 0.30835,-0.80564 0.69833,-1.52966 1.19108,-2.14485 0.13755,-0.42172 0.26603,-0.84948 0.59705,-1.0747 0.27964,-0.71193 0.61671,-1.36944 1.07319,-1.90754 0.0923,-0.34614 0.18894,-0.68472 0.47764,-0.83436 0.37032,-0.82378 0.77692,-1.60826 1.31351,-2.26729 0.32045,-0.75123 0.71193,-1.43292 1.19108,-2.02544 0.0377,-0.27963 0.12546,-0.51241 0.35521,-0.59705 0.15418,-0.4852 0.38695,-0.88878 0.71949,-1.1926 0.45497,-1.01574 1.02480996,-1.91661 1.67022996,-2.7419 0.0393,-0.27963 0.12243,-0.51543 0.35521,-0.59856 0.30382,-0.73309 0.70437004,-1.36642 1.19410004,-1.90452 0.30382,-0.73612 0.70437,-1.36793 1.19411,-1.91057 0.16173,-0.55322 0.4731,-0.95679 0.83285,-1.312 0.16173,-0.55322 0.47764,-0.9568 0.83587,-1.31201 0.23882,-0.67716 0.63786,-1.19108 1.07318,-1.67174 0.63031,-1.27724 1.44048,-2.37763 2.26729,-3.45686 0.51694,-1.26968 1.47071,-2.10857 2.02695,-3.33744 0.2055704,0.006 0.1541804,-0.24638 0.3582304,-0.23882 0.23429,-0.66054 0.71949,-1.07016 1.01121,-1.67175 0.61822,0.16022 0.7739,0.77844 1.01424,1.31352 0.49124,0.54263 0.89028,1.17445 1.1941,1.90603 0.49276,0.54566 0.8918,1.17899 1.19259,1.91056 0.29173,0.22673 0.50334,0.52601 0.59856,0.95378 0.48974,0.54414 0.89029,1.17747 1.19109,1.90603 0.68774,0.86308 1.2863,1.81987 1.78964,2.86282 0.48822,0.54415 0.88878,1.17748 1.19259,1.91057 0.29022,0.22673 0.50334,0.5245 0.59857,0.95226 0.75727,0.99156 1.45559,2.04056 2.02544,3.21804 0.48973,0.54717 0.88877,1.1805 1.19259,1.90754 0.69077,0.86308 1.28782,1.81685 1.79116,2.86434 0.68925,0.86157 1.28328,1.81534 1.78662,2.86131 0.2887,0.23126 0.50636,0.53206 0.59856,0.95377 0.28719,0.22975 0.50334,0.53206 0.59252,0.9568 0.69077,0.85854 1.28933,1.81383 1.79267,2.86131 0.87668,1.0883 1.56442,2.37158 2.26426,3.63975 0.0135,0.32347 0.14813,0.52904 0.24033,0.77239 l 0,1.19259 c -0.5638,1.28631 -2.18264,1.51304 -3.99647,1.55234 -1.79871,0.28719 -3.69567,0.47613 -5.6667,0.59705 l -0.11645,0.11645 0,2.50308 33.1583,0 0,-2.50308 -0.12092,-0.11645 c -0.43834,-0.0408 -1.05051,0.0998 -1.312,-0.12092 l -0.77239,0 -0.18138,-0.11935 c -0.29324,0.0137 -0.57287,0.0167 -0.71193,-0.1179 l -0.53962,0 -0.17836,-0.12092 -0.4202,0 c -1.58105,-0.50334 -3.35709,-0.81622 -4.35168,-1.91057 -0.30835,-0.062 -0.49729,-0.25998 -0.71646,-0.47311 -0.51241,-0.5124 -0.92505,-1.0505 -1.43141,-1.49187 l 0,-0.17987 c -0.20103,-0.15266 -0.46404,-0.2494 -0.47613,-0.59554 -0.17232,-0.10278 -0.37335,-0.18138 -0.35823,-0.47764 -0.1829,-0.0333 -0.22522,-0.2101 -0.35975,-0.29928 -0.44438,-0.92203 -1.1805,-1.55839 -1.5478,-2.56355 -0.35823,-0.3537 -0.67111,-0.75576 -0.83587,-1.30898 -0.64844,-0.78448 -1.21224,-1.65209 -1.67174,-2.62552 -0.35975,-0.3552 -0.67112,-0.75878 -0.83285,-1.312 -0.73309,-0.89633 -1.37247,-1.88789 -1.91057,-2.98072 -0.35823,-0.35672 -0.66961,-0.75577 -0.83134,-1.31352 -0.35974,-0.35521 -0.67565,-0.75878 -0.83587,-1.312 -0.721,-0.9054 -1.36944,-1.88941 -1.91057,-2.97922 -0.64995,-0.78448 -1.21224,-1.65209 -1.6657,-2.62551 -0.64995,-0.78297 -1.21073,-1.6521 -1.67174,-2.62099 -0.43532,-0.48368 -0.83588,-0.99155 -1.0747,-1.67174 -0.36125,-0.35672 -0.67111,-0.75879 -0.83587,-1.312 -0.64844,-0.77995 -1.20922,-1.65361 -1.66721,-2.6225 -0.36125,-0.35672 -0.67112,-0.75878 -0.83738,-1.312 -0.73309,-0.89633 -1.37247,-1.88941 -1.90604,-2.98375 -0.36276,-0.35521 -0.67414,-0.75878 -0.83889,-1.312 -0.64845,-0.78146 -1.20771,-1.6521 -1.6657,-2.62098 -0.36126,-0.35672 -0.67716,-0.75879 -0.83739,-1.31352 -0.4338,-0.47915 -0.83738,-0.99156 -1.07167,-1.67023 -0.57891,-0.656 -1.05353,-1.41479 -1.43443,-2.26578 0.85099,-1.29688 1.61733,-2.67842 2.62551,-3.81811 0.6031,-1.06864 1.22736,-2.1116 2.02998,-2.97619 0.44137,-0.83285 0.90692,-1.63849 1.54931,-2.2688 0.62124,-1.1291 1.33468,-2.1645 2.14788,-3.09862 0.55019,-1.00063 1.17294,-1.9287 1.90603,-2.74493 0.1315,-0.39148 0.4202,-0.73762 0.59856,-1.07318 0.0877,-0.16778 0.40358,-0.3416 0.47613,-0.48066 l 0,-0.2358 0.35672,-0.23731 c 0.19197,-0.26603 0.21615,-0.71646 0.59706,-0.83587 0.30381,-0.64996 0.70134,-1.2062 1.1941,-1.67024 0.30382,-0.64844 0.70135,-1.20619 1.19259,-1.67023 0.25092,-0.50334 0.53206,-0.97796 0.95226,-1.312 0.37033,-0.66659 0.78751,-1.28026 1.31352,-1.78965 0.1451,-0.40962 0.3945,-0.71646 0.71797,-0.95377 0.2494,-0.50183 0.53206,-0.97644 0.95377,-1.312 0.26905,-0.5638 0.63031,-1.03691 1.07167,-1.4299 0.17987,-0.458 0.49276,-0.77844 0.83588,-1.07319 0.0438,-0.39602 0.3552,-0.51845 0.59705,-0.71646 0.0801,-0.43834 0.43834,-0.59252 0.71193,-0.83134 l 0,-0.24184 c 0.83133,-0.57438 1.52512,-1.72616 2.38971,-2.14637 0.48218,-0.68925 1.36491,-0.97946 2.08591,-1.43141 0.52752,-0.10883 1.00516,-0.26603 1.43292,-0.47915 0.26301,0.0484 0.39753,-0.0393 0.53659,-0.11488 l 0.41718,0 c 0.0544,-0.18591 0.36882,-0.10738 0.59554,-0.12092 l 0.17836,-0.12092 0.65601,0 c 0.86005,-0.19348 1.86068,-0.24638 2.92328,-0.23882 l 0,-2.62401 -25.40872,0 0,2.62401 c 1.19713,0.11487 2.38368,0.24184 3.45988,0.48066 0.34312,0.008 0.77844,-0.0665 0.95377,0.11488 l 0.65601,0 0.17987,0.12092 c 1.43141,0.0816 2.40634,0.61821 2.7419,1.78964 l 0,0.77693 -0.11935,0.17382 0,0.30382 c -0.19952,0.13453 -0.0921,0.58194 -0.35521,0.65298 -0.0318,0.44741 -0.18894,0.76483 -0.47764,0.95377 -0.37032,0.82529 -0.77994,1.60977 -1.31351,2.2688 -0.2101,0.54112 -0.45799,1.05202 -0.83285,1.4299 -0.0408,0.27661 -0.12546,0.50938 -0.35823,0.59705 -0.15116,0.48218 -0.38695,0.88575 -0.71798,1.19259 -0.26754,0.6817 -0.62577,1.28026 -1.07016,1.78965 -0.0423,0.2751 -0.12696,0.50787 -0.35672,0.59252 -0.42171,0.93563 -0.96586,1.74278 -1.55082,2.50459 -0.0967,0.42776 -0.30986,0.72704 -0.60159,0.95377 -0.0891,0.42625 -0.30381,0.72856 -0.59402,0.9568 -0.16174,0.5517 -0.47462,0.95528 -0.83588,1.30898 -0.61065,1.22282 -1.33165,2.32774 -2.14485,3.34198 -0.31591,0.79959 -0.7996,1.42687 -1.312,2.02544 0.0771,0.28265 -0.19801,0.20254 -0.12092,0.47915 -1.70198,2.19473 -3.0684,4.722 -4.77037,6.91825 0.0498,0.22975 -0.10134,0.25544 -0.17988,0.3552 l -0.41718,0 c -0.79506,-1.30897 -1.70046,-2.51517 -2.38367,-3.93449 -0.2887,-0.22673 -0.50485,-0.52752 -0.59856,-0.95529 -0.29022,-0.22824 -0.50485,-0.52903 -0.59403,-0.95377 -0.78448,-0.96737 -1.44955,-2.05567 -2.0299804,-3.21954 -0.28719,-0.22824 -0.50485,-0.52904 -0.59403,-0.95529 -0.49275,-0.54263 -0.8918,-1.17596 -1.1941,-1.90754 -0.49276,-0.54415 -0.8918,-1.17748 -1.19411,-1.90905 -0.77994,-0.96738 -1.44652,-2.05265 -2.02695,-3.21653 -0.2887,-0.23126 -0.50334,-0.53205 -0.59554,-0.95528 -0.2887,-0.23126 -0.50636,-0.53055 -0.59554,-0.95377 -0.69077,-0.86006 -1.28933,-1.81685 -1.79267,-2.86434 -0.35823,-0.35521 -0.67111,-0.75576 -0.83436004,-1.312 -0.68774,-0.86308 -1.28328,-1.81383 -1.78511,-2.86132 -0.70436996,-0.88877 -1.35431996,-1.83045 -1.79266996,-2.98526 0.0347,-0.26905 -0.0167,-0.45497 -0.1179,-0.59252 0.54264,-2.01637 3.19233996,-1.93626 5.54579,-2.14636 0.57891,-0.17836 1.26968,-0.24184 2.02846,-0.23882 0.11185,-0.22673 0.59705,-0.0786 0.8918,-0.12092 l 0,-2.62401 -29.6984196,0 0,2.62401 c 0.73006,0.0635 1.72313,-0.13453 2.26577,0.12092 l 0.89634,0 0.17836,0.1179 0.53356,0 c 0.43986,0.18138 0.91296,0.32044 1.49339,0.35672 0.45799,0.30079 1.00063,0.51241 1.55082,0.71646 -0.008,0.20859 0.24336,0.15418 0.23731,0.35974 0.393,0.0408 0.51845,0.35672 0.71646,0.59706 0.3008,0.0166 0.46404,0.17533 0.47613,0.47764 0.31591,0.28114 0.71798,0.4731 0.83588,0.95377 0.20556,0.14964 0.46555,0.2494 0.47764,0.59705 0.17534,0.10278 0.37486,0.17987 0.35823,0.47613 0.18138,0.0302 0.22371,0.2101 0.35521,0.29626 0.58193,1.11248 1.43746,1.94231 1.91208,3.16211 0.23126,0.0832 0.31742,0.32044 0.35672,0.59252 0.55624,0.67716 1.05353,1.41478 1.4298996,2.26728 0.55775,0.67565 1.05353,1.41328 1.43292,2.26729 0.57438,0.656 1.05051,1.41176 1.4299,2.26577 0.64845,0.78146 1.21073,1.6521 1.67175,2.6225 0.55624,0.67716 1.05504,1.41025 1.4299,2.26879 0.29021,0.22975 0.50334,0.52753 0.59403,0.94924 0.36277,0.36125 0.67414,0.75879 0.8389,1.31654 0.55624,0.67565 1.05202,1.41025 1.4299,2.26577 0.57890996,0.65449 1.05201996,1.41328 1.43291996,2.26578 0.84948004,1.09434 1.61431004,2.28089 2.26729004,3.5808 0.85401,1.08829 1.59617,2.29449 2.26275,3.57475 0.57891,0.65449 1.05202,1.41176 1.43292,2.26578 0.5759,0.65449 1.05051,1.41478 1.42991,2.26879 0.61821,0.68926 1.08829,1.5342 1.55082,2.38217 l -0.23882,0.24184 c 0.0302,0.22522 -0.0816,0.31137 -0.23882,0.3537 -0.0756,0.32648 -0.23429,0.55926 -0.47613,0.71343 -0.55473,1.03691 -1.19411,1.99068 -1.90755,2.86434 -0.47764,0.91447 -1.03388,1.75035 -1.67023,2.50309 -0.55775,1.0369 -1.19108,1.9937 -1.90754,2.86433 0.0771,0.35824 -0.32045,0.23731 -0.23731,0.59706 -0.20557,-0.008 -0.15418,0.24335 -0.36126,0.24033 -0.68472,1.38002 -1.70046004,2.43053 -2.38669004,3.81206 -0.20255,-0.004 -0.15115,0.2494 -0.35672,0.24033 -0.52147996,0.95075 -1.06713996,1.87278 -1.79115996,2.62099 -0.43985,0.83436 -0.90842,1.63849 -1.54629,2.26879 -0.36125,0.71193 -0.75425,1.39514 -1.31351,1.91057 -0.27963,0.59101 -0.59705,1.15027 -1.07016,1.54629 -0.28417,0.59856 -0.60159,1.1548 -1.07772,1.55234 -0.19498,0.48217 -0.44136,0.90842 -0.83285,1.1941 -0.19801,0.47915 -0.44438,0.90843 -0.83587,1.19108 -0.46555,0.88878 -1.01574,1.68535 -1.6717496,2.38367 -0.10133,0.37486 -0.29474,0.66054 -0.59856,0.8389 -0.10278,0.37032 -0.29172,0.65449 -0.59252,0.83285 0,0.40811 -0.39299,0.54566 -0.59856,0.83285 -0.11488,0.16475 -0.1179,0.44288 -0.23731,0.59705 -0.16173,0.20859 -0.24184,0.22975 -0.35672,0.47915 l -0.23731,0.12093 0,0.23579 -0.24033,0.1179 c -0.11488,0.21766 -0.10581,0.44893 -0.35823,0.47916 0.0166,0.29474 -0.1829,0.37183 -0.35521,0.47461 -0.26905,0.64845 -0.70739,1.12609 -1.19259,1.55234 -0.0832,0.43834 -0.44137,0.59554 -0.71798,0.83587 -0.32951,0.62275 -0.80564,1.1019 -1.43292,1.4299 -0.19801,0.24185 -0.32044,0.5502 -0.71344,0.59554 -0.81925,0.97191 -2.35495,1.22132 -3.6987,1.67024 l -0.41718,0 -0.17987,0.12092 -0.53659,0 -0.17836,0.1179 -0.65449,0 c -0.19499,0.24638 -0.81169,0.0619 -1.19562,0.11935 -0.50333,0.27207 -1.55233,-0.005 -2.0859,0.23731 l 0,2.50308 28.02969956,0 c -0.0635,-0.84645 0.13906,-1.96649 -0.1179,-2.61947 M -121.21524,470.95246 c 0.95528,-2.75854 2.39879,-5.03489 5.0107,-6.14284 5.13918,-2.27333 13.18654,-1.64 20.514415,-1.72767 l 0,69.94728 c 0,3.21199 0.30684,6.68094 -1.13365,8.88625 -0.20707,0.24941 -0.49729,0.41718 -0.656,0.71495 -3.069905,1.48432 -7.531925,1.57501 -11.749075,1.90755 -0.13755,0.71646 -0.0197,1.69291 -0.059,2.50308 l 38.648155,0 c -0.0771,-0.79506 0.15418,-1.90452 -0.11935,-2.50308 -4.28063,-0.37033 -8.91799,-0.38695 -11.80953,-2.14485 -1.96952,-1.67326 -1.67175,-5.17395 -1.67175,-8.41012 0,-23.68105 -0.0484,-47.55708 0.0605,-70.90106 9.08577,0.11935 19.31274,-0.89936 23.67803,3.93601 0.45043,0.93865 1.11248,1.67174 1.43292,2.74644 0.48973,0.89784 0.72553,2.05114 1.07167,3.09862 0.45497,2.33077 0.84192,4.72049 0.95377,7.39589 l 2.98224,0 0,-20.51743 -71.866925,0 -0.0605,0.18138 0,20.33605 2.98526,0 c 0.25545,-3.44023 0.82227,-6.57211 1.78813,-9.30645 m -92.56271,71.20033 c 2.84318,2.52425 6.66885,4.07054 10.85577,5.2465 0.62426,0.053 1.13969,0.21464 1.66721,0.35975 0.27661,-0.0363 0.46102,0.0197 0.59856,0.11935 0.45346,0.0227 0.84797,0.1058 1.1926,0.24033 0.29172,-0.0181 0.57286,-0.0197 0.71646,0.11935 0.29323,-0.0166 0.57438,-0.0197 0.71495,0.11487 0.96284,0.0347 1.81383,0.17836 2.62401,0.35824 3.85892,0.44136 7.93701,0.31288 11.74907,-0.11633 0.0998,-0.21917 0.55473,-0.0832 0.83587,-0.12092 0.0741,-0.20255 0.46404,-0.0907 0.71496,-0.12093 0.0725,-0.20254 0.46554,-0.0907 0.71646,-0.11487 l 0.17836,-0.11935 c 11.03715,-1.96498 17.41729,-8.58697 20.03978,-18.96509 -0.0363,-0.27359 0.0166,-0.45799 0.11935,-0.59706 -0.0348,-0.27358 0.0181,-0.45648 0.11633,-0.59402 0.001,-0.31742 -0.0423,-0.67868 0.12092,-0.83588 0.2494,-2.67388 0.17836,-5.20569 -0.12092,-7.81306 -0.21766,-0.0983 -0.0801,-0.55473 -0.11633,-0.83134 -0.18289,-0.0574 -0.10738,-0.37486 -0.11935,-0.59554 -0.18289,-0.0574 -0.10738,-0.37335 -0.12092,-0.60159 -0.86913,-3.26338 -2.05265,-6.21236 -3.93601,-8.46756 -1.68535,-2.34739 -4.08565,-3.98437 -6.20329,-5.9025 -0.29324,0.0196 -0.37184,-0.17987 -0.47613,-0.35823 -0.67716,-0.31742 -1.27271,-0.71495 -1.78965,-1.18806 -1.43746,-0.75122 -2.89154,-1.4828 -4.29272,-2.26879 -0.48974,-0.0287 -0.78297,-0.25243 -1.0747,-0.47613 -0.56077,0.0484 -0.6303,-0.40358 -1.19259,-0.35824 0.0923,-0.25091 -0.33102,0.008 -0.23882,-0.24033 -1.22585,-0.32649 -2.28996,-0.80715 -3.45837,-1.19108 l -0.35823,0 c -0.50787,-0.36428 -1.31049,-0.43834 -1.78813,-0.83285 -0.40056,0 -0.63031,-0.16778 -0.83588,-0.35823 -0.40055,0 -0.6303,-0.16778 -0.83587,-0.35974 -0.40055,0.004 -0.6303,-0.16778 -0.83436,-0.35975 -0.89784,-0.25393 -1.68686,-0.6167 -2.38518,-1.07015 l -0.35824,0 c -1.04748,-0.70286 -2.38518,-1.11249 -3.33895,-1.90906 -0.34614,-0.0907 -0.68623,-0.18894 -0.83587,-0.47764 -0.84495,-0.26905 -1.33317,-0.89029 -2.14637,-1.19108 0.007,-0.2101 -0.24487,-0.15267 -0.24033,-0.35974 -0.43683,-0.0771 -0.59403,-0.43835 -0.83285,-0.71798 -0.58647,-0.28417 -1.02481,-0.72251 -1.312,-1.30898 -0.27812,-0.24033 -0.63636,-0.40055 -0.71798,-0.83587 -1.47676,-1.66268 -2.58773,-3.68963 -3.21954,-6.19876 l 0,-0.4202 -0.11935,-0.17534 0,-0.656 c -0.19952,-1.10493 -0.19348,-3.01247 0,-4.11588 0.0121,-0.85401 0.16173,-1.67628 0.35823,-2.26578 0.12848,-0.38997 0.12092,-0.89633 0.23882,-1.312 0.1133,-0.41265 0.33556,-0.8525 0.47764,-1.312 l 0.23731,-0.24034 0,-0.3552 c 0.0438,-0.13151 0.24789,-0.31591 0.35823,-0.53962 0.0998,-0.20254 0.15115,-0.53205 0.23882,-0.65449 l 0.23731,-0.12092 0.11935,-0.47764 0.24033,-0.1179 0,-0.23731 0.23731,-0.12092 0,-0.23731 0.24033,-0.1179 0,-0.23882 0.35521,-0.23882 0,-0.23731 c 0.17534,-0.27207 0.55171,-0.39904 0.71798,-0.59705 l 0,-0.24336 c 0.1179,-0.17987 0.46555,-0.48973 0.656,-0.59251 0.30684,-0.1693 0.44439,-0.44742 0.71495,-0.59555 0.37637,-0.2101 0.6696,-0.50182 0.95377,-0.71646 0.26905,-0.20405 0.91901,-0.53508 1.1941,-0.71646 0.19801,-0.1315 0.5638,-0.31137 0.71496,-0.35521 0.41718,-0.12243 0.55321,-0.25242 0.83436,-0.35974 0.19801,-0.0756 0.46857,-0.0377 0.656,-0.12092 l 0.29928,-0.23429 c 0.72704,-0.22975 1.4435,-0.28114 2.26577,-0.47915 0.45648,-0.10738 0.9704,-0.29777 1.55083,-0.24033 1.30444,-0.27208 3.40093,-0.36277 4.83083,-0.11633 0.37334,0.0212 0.87215,-0.0786 1.07318,0.11633 l 0.656,0 c 9.20367,1.91056 12.83738,9.38958 14.25367,19.0845 0.96587,-0.0695 2.21287,0.14359 2.98224,-0.11935 l 0,-17.53066 c -0.29626,0.0151 -0.37335,-0.18591 -0.47764,-0.35974 -1.46165,-0.72251 -2.68749,-1.68686 -4.41365,-2.14788 -0.80111,-0.50787 -1.96196,-0.66053 -2.86132,-1.07167 -0.52147,-0.0756 -0.99458,-0.19801 -1.43141,-0.35823 -0.27359,0.0363 -0.45799,-0.0197 -0.59705,-0.12092 -0.27359,0.0377 -0.45799,-0.0166 -0.59554,-0.1179 -0.29324,0.0166 -0.57438,0.0166 -0.71646,-0.11935 -0.59857,0 -1.10039,-0.0937 -1.55083,-0.23882 -0.34311,-0.0137 -0.77994,0.0635 -0.95377,-0.11935 -2.73888,-0.18743 -5.88134,-0.59856 -8.76684,-0.24033 -1.40874,-0.0923 -2.40332,0.22522 -3.69719,0.24033 -0.0998,0.21766 -0.55473,0.0831 -0.83587,0.11935 -0.3537,0.16476 -0.78902,0.24487 -1.312,0.23882 l -0.17836,0.11935 -0.41869,0 c -1.21527,0.40358 -2.28089,0.59252 -3.39942,0.95377 -0.393,0.12697 -0.74518,0.41416 -1.01272,0.47613 -0.70135,0.17081 -1.1412,0.48369 -1.67024,0.71647 l -0.29777,0 c -0.15871,0.0574 -0.52298,0.38846 -0.656,0.47915 -0.27812,0.17987 -0.72553,0.23731 -0.89482,0.35672 l -0.17836,0.24033 c -0.30684,0.16627 -0.39753,0.20708 -0.59856,0.35521 -0.16778,0.12394 -0.42625,0.16022 -0.53508,0.23882 -0.1179,0.0832 -0.15418,0.29928 -0.29929,0.35974 -0.40055,0.16174 -0.64239,0.47311 -0.95377,0.71193 -0.29474,0.22975 -0.64542,0.66658 -0.95377,0.8389 -0.30835,0.16778 -0.58798,0.40508 -0.89482,0.71495 -0.22371,0.21766 -0.53659,0.49578 -0.71495,0.71041 l 0,0.24336 c -0.19197,0.29475 -0.62124,0.45346 -0.83739,0.71344 l 0,0.23882 c -0.0953,0.16778 -0.41415,0.25998 -0.47613,0.35974 l 0,0.23731 -0.35672,0.23882 0,0.23731 c -0.0786,0.14662 -0.35218,0.2887 -0.47764,0.47764 l 0,0.23882 -0.23882,0.11645 c -0.0982,0.1572 -0.14359,0.47008 -0.23731,0.60159 l -0.24033,0.1179 c -0.21917,0.36881 -0.3673,0.91447 -0.59554,1.37246 -0.40962,0.81925 -0.74065,1.34828 -0.95377,2.20531 l -0.23882,0.35521 c -0.29173,0.89936 -0.41416,1.75942 -0.71647,2.62552 l 0,0.41567 -0.11934,0.18138 c 0.0167,0.29173 0.0181,0.57287 -0.11935,0.71495 0,0.31742 0.0453,0.68019 -0.1179,0.83436 -0.21615,2.23706 -0.12697,4.73561 0.1179,6.85628 0.20405,0.0756 0.0923,0.46706 0.11935,0.71646 l 0.11934,0.17836 0,0.4202 c 0.28871,0.54415 0.27208,1.39816 0.59555,1.90603 0.15719,1.21678 0.82075,1.92417 1.07318,3.04119 0.49729,0.58043 0.82378,1.32561 1.1941,2.02998 0.18441,0.0302 0.22522,0.21161 0.35823,0.29626 0.89936,1.50547 2.26275,2.54842 3.45988,3.75613 0.72856,0.26452 1.01726,0.97191 1.78813,1.19562 -0.006,0.20103 0.24638,0.14964 0.23882,0.35521 0.29475,-0.0197 0.37335,0.18289 0.47765,0.35823 0.55775,0.2358 1.03388,0.55624 1.43141,0.95377 0.67867,0.27358 1.26061,0.64693 1.78662,1.07016 2.02544,1.03993 4.12948,1.99823 6.0854,3.10618 0.81924,0.2101 1.49187,0.57136 2.14485,0.95226 0.40055,-0.004 0.63182,0.16476 0.83738,0.35823 0.5638,-0.0484 0.63031,0.40358 1.1926,0.35672 -0.0921,0.2494 0.32951,-0.0137 0.23731,0.24184 0.29777,-0.0227 0.49275,0.0605 0.59705,0.2358 1.24096,0.38846 2.51668,0.74367 3.57929,1.31201 0.50636,0.0514 0.9054,0.21161 1.19259,0.47613 2.30356,0.71797 4.0403,2.00276 5.96296,3.10164 -0.006,0.20255 0.24638,0.15115 0.23882,0.35672 0.49427,0.22068 0.87971,0.55322 1.19411,0.95226 l 0.2373,0 c 0.61671,0.75879 1.36189,1.38305 2.02847,2.09044 l 0,0.17836 c 0.73913,0.69228 1.36037,1.50245 1.78964,2.5046 0.52904,0.66204 0.92657,1.45559 1.1926,2.38669 0.39299,0.41869 0.39148,1.23492 0.71495,1.72465 0.0544,0.56682 0.20254,1.03539 0.35823,1.49187 l 0,0.42021 0.12092,0.17836 0,0.53508 0.11633,0.17987 0,0.77541 c 0.27207,1.52664 0.21766,3.25885 0,4.83385 l 0,0.77088 c -0.13151,0.47462 -0.26603,1.03993 -0.35672,1.49188 -0.13604,0.68472 -0.3144,1.19712 -0.47613,1.66721 -0.1179,0.34311 -0.11331,0.76483 -0.23882,1.07469 l -0.23882,0.23731 0,0.35974 c -0.068,0.20406 -0.32649,0.47009 -0.47765,0.77239 -0.1451,0.29626 -0.23277,0.71798 -0.35823,0.89936 l -0.23882,0.11645 -0.1179,0.47764 -0.23882,0.1179 c -0.1315,0.17231 -0.14661,0.47915 -0.23882,0.59705 l -0.35672,0.24184 0,0.2358 c -0.0877,0.14964 -0.35974,0.21464 -0.47915,0.35823 l 0,0.23731 c -0.19952,0.30986 -0.67414,0.55775 -1.07167,0.95377 -0.71193,0.71344 -1.26666,1.25759 -1.96952,1.78965 -1.25154,0.9447 -3.28152,1.81383 -4.94873,2.26577 -1.24549,0.33707 -2.47738,0.5502 -3.87706,0.59705 -1.38002,0.19952 -3.57324,0.19348 -4.95175,0 l -0.77541,0 -0.17987,-0.1179 -0.53508,0 -0.17836,-0.12092 c -0.27359,0.0333 -0.4595,-0.0197 -0.59705,-0.12092 l -0.41869,0 c -9.51958,-2.7026 -14.18112,-10.26778 -16.87617,-19.79643 -0.11185,-1.10341 -0.51392,-1.90905 -0.59705,-3.03967 l -0.1179,-0.17836 0,-0.59706 c -0.77239,-0.26602 -2.01789,-0.0528 -2.98375,-0.12092 0.30382,6.97417 0.79355,13.75789 1.1941,20.63079 0.16778,-0.0109 0.11488,0.20406 0.35672,0.12092"
       style="fill:#000000;fill-opacity:1;fill-rule:evenodd;stroke:none"
       id="path4460" />
  </g>
</svg>
